<?xml version="1.0" encoding="utf-8"?>
<!-- Generator: Adobe Illustrator 19.1.0, SVG Export Plug-In . SVG Version: 6.00 Build 0)  -->
<!DOCTYPE svg PUBLIC "-//W3C//DTD SVG 1.1//EN" "http://www.w3.org/Graphics/SVG/1.1/DTD/svg11.dtd">
<svg version="1.1" id="Layer_1" xmlns="http://www.w3.org/2000/svg" xmlns:xlink="http://www.w3.org/1999/xlink" x="0px" y="0px"
	 viewBox="0 0 40 40" enable-background="new 0 0 40 40" xml:space="preserve">
<g>
	<path fill="#FFF" d="M32.2,30.9c0.7,0,1.7,0.7,1.9,1.4l0.7,2.5c0,0,0,0.1,0,0.1c0,0-0.1,0-0.1,0c0,0,0,0,0,0l-29.4,0
		c-0.1,0-0.1,0-0.2,0c0,0,0-0.1,0-0.2l0.7-2.5c0.2-0.7,1.1-1.4,1.8-1.4H32.2 M32.2,28.5H7.7c-1.8,0-3.7,1.4-4.1,3.2l-0.7,2.5
		c-0.5,1.8,0.6,3.2,2.4,3.2l29.4,0c0,0,0,0,0,0c1.8,0,2.9-1.4,2.4-3.1l-0.7-2.5C35.9,29.9,34,28.5,32.2,28.5L32.2,28.5z"/>
	<path fill="#FFF" d="M35.1,2.7H4.9c-0.8,0-1.4,0.6-1.4,1.4v21c0,0.8,0.6,1.4,1.4,1.4h30.2c0.8,0,1.4-0.6,1.4-1.4v-21
		C36.5,3.3,35.9,2.7,35.1,2.7z M33.7,23.7H6.3V5.5h27.5V23.7z"/>
</g>
<path fill="#808282" d="M6.2,5.5"/>
</svg>
