<?xml version="1.0" encoding="utf-8"?>
<!-- Generator: Adobe Illustrator 19.0.1, SVG Export Plug-In . SVG Version: 6.00 Build 0)  -->
<!DOCTYPE svg PUBLIC "-//W3C//DTD SVG 1.1//EN" "http://www.w3.org/Graphics/SVG/1.1/DTD/svg11.dtd">
<svg version="1.1" id="Layer_1" xmlns="http://www.w3.org/2000/svg" xmlns:xlink="http://www.w3.org/1999/xlink" x="0px" y="0px"
	 viewBox="0 0 40 40" enable-background="new 0 0 40 40" xml:space="preserve">
<path fill="#818181" d="M28.5,28.2l2.2-2.2v11c0,1.6-1.4,3-3,3H3.6c-1.6,0-3-1.4-3-3V5.6c0-1.8,1.4-3,3-3.1h2.7V0.7
	C6.3,0.3,6.7,0,7.1,0c0.4,0,0.7,0.3,0.7,0.7v1.8h4.4V0.7c0-0.4,0.3-0.7,0.7-0.7c0.4,0,0.8,0.3,0.8,0.7v1.8h4V0.7
	C17.7,0.3,18,0,18.4,0s0.7,0.3,0.7,0.7v1.8h4.1V0.7c0-0.4,0.3-0.7,0.7-0.7s0.7,0.3,0.7,0.7v1.9h3.2c1.6,0,3,1.4,3,3v2.9l-2.2,1.4
	l-0.8,0.8V5.5c0-0.4-0.3-0.7-0.7-0.7h-3.2V6c0,0.4-0.3,0.7-0.7,0.7S22.5,6.4,22.5,6V4.8h-4.1V6c0,0.4-0.3,0.7-0.7,0.7
	C17.3,6.7,17,6.4,17,6V4.8h-3.7V6c0,0.4-0.3,0.7-0.7,0.7S11.9,6.4,11.9,6V4.8H7.7v1.4c0,0.4-0.3,0.7-0.7,0.7S6.3,6.6,6.3,6.2V4.9
	H3.6c-0.4,0-0.7,0.3-0.7,0.7V37c0,0.4,0.3,0.7,0.7,0.7h7h3.6h13.7c0.4,0,0.7-0.3,0.7-0.7V28.2z M29.3,12.6l6.2,6.2L20.8,33.6
	c0,0-0.3,0.3-0.5,0.3c0,0,0,0-0.1,0l-7.7,2.5c-0.3,0-0.4,0-0.5-0.1c-0.1-0.1-0.1-0.4-0.1-0.5l2.5-7.7c0,0,0,0,0-0.1
	c0-0.3,0.3-0.4,0.3-0.5l2.7-2.7l1.5-1.4L29.3,12.6z M18.9,33l-3.8-3.8l-1,3.2l1.6,1.6L18.9,33z M29.2,15.1c-0.3-0.3-0.5-0.3-0.8,0
	L16.9,26.6c-0.3,0.3-0.3,0.5,0,0.8c0.3,0.3,0.5,0.3,0.8,0l11.5-11.5C29.3,15.6,29.3,15.2,29.2,15.1z M39.1,13.3l-4.1-4.1
	c-0.5-0.7-1.6-0.6-2.3,0.1l-2.2,2.2l6.2,6.2l2.2-2.2C39.6,14.8,39.6,13.7,39.1,13.3z"/>
</svg>
