<svg xmlns="http://www.w3.org/2000/svg" xmlns:xlink="http://www.w3.org/1999/xlink" width="611.6" height="66.723" viewBox="0 0 611.6 66.723"><defs><style>.a{fill:#fff;}.b{clip-path:url(#a);}</style><clipPath id="a"><path class="a" d="M581.931,66.723,555.125,42.607H541.008V66.723H519.256V0h21.752V23.545h11.349L577.257,0H605.59L571.533,30.977,611.6,66.723Zm-108.087,0-37.87-46.515V66.723H414.6V0h31.48l37.875,46.515V0h21.367V66.723Zm-90.247,0-5.629-9.914h-45.6l-5.63,9.914H302.7L341.434,0h27.952l38.731,66.723Zm-173.434,0V0h65.157C288.486,0,296.4,6.861,296.4,17.825c0,8.007-4.2,11.915-8.011,14.012,4.959,1.141,12.02,5.72,12.02,16.3,0,12.3-9.538,18.586-22.9,18.586Zm-35.584,0L147.773,42.607H133.652V66.723H111.9V0h21.747V23.545h11.354L169.906,0h28.333L164.182,30.977l40.067,35.746Zm-93.68,0-5.63-9.914h-45.6l-5.63,9.914H0L38.731,0H66.683l38.731,66.723Z"/></clipPath></defs><path class="a" d="M581.931,66.723,555.125,42.609H541.008V66.723H519.256V.005h21.752V23.549h11.349L577.257.005H605.59L571.533,30.98,611.6,66.723Zm-108.087,0-37.87-46.512V66.723H414.6V.005h31.48l37.875,46.512V.005h21.367V66.723Zm-65.743,0h-24.51l-5.62-9.923H332.366l-5.619,9.918-24.044,0L341.429,0h27.957l38.721,66.713.005.01ZM355.16,16.778,341.429,40.988,369,40.983Zm-145,49.945V0h65.157c6.435,0,11.784,1.661,15.477,4.8,3.663,3.133,5.6,7.641,5.6,13.035,0,6.38-2.7,11.094-8.016,14.011,5.544,1.271,12.025,6.31,12.025,16.288,0,5.865-2.227,10.674-6.435,13.906-3.993,3.062-9.683,4.679-16.453,4.679ZM231.54,50.711h39.492c4.789,0,7.431-1.9,7.431-5.344,0-3.433-2.642-5.324-7.431-5.324H231.54Zm0-24.975h36.92c4.484,0,6.76-1.6,6.76-4.749,0-3.253-2.337-4.974-6.76-4.974H231.54ZM174.58,66.723,147.773,42.609H133.652V66.723H111.9V.005h21.747V23.549h11.354L169.906.005h28.333L164.182,30.98l40.067,35.744Zm-69.18,0H80.89L75.27,56.8h-45.6l-5.62,9.918L0,66.723,38.726,0H66.688L105.4,66.713l.01.01ZM52.457,16.778,38.726,40.988l27.567-.005-13.831-24.2v-.005Z"/></svg>